<?xml version="1.0" encoding="iso-8859-1"?>
<!-- Generator: Adobe Illustrator 16.0.0, SVG Export Plug-In . SVG Version: 6.00 Build 0)  -->
<!DOCTYPE svg PUBLIC "-//W3C//DTD SVG 1.1//EN" "http://www.w3.org/Graphics/SVG/1.1/DTD/svg11.dtd">
<svg version="1.1" id="Capa_1" xmlns="http://www.w3.org/2000/svg" xmlns:xlink="http://www.w3.org/1999/xlink" x="0px" y="0px"
	 width="423.699px" height="423.699px" viewBox="0 0 423.699 423.699" style="enable-background:new 0 0 423.699 423.699;"
	 xml:space="preserve">
<g>
	<path d="M342.222,52.778l-49.3-50.861C291.734,0.689,290.101,0,288.402,0H85.999c-3.479,0-6.292,2.818-6.292,6.292v411.111
		c0,3.475,2.813,6.295,6.292,6.295h251.703c3.475,0,6.291-2.82,6.291-6.295V57.16C343.992,55.53,343.357,53.954,342.222,52.778z
		 M302.033,367.062c0,3.469-2.818,6.293-6.293,6.293H127.944c-3.465,0-6.292-2.824-6.292-6.293V199.271
		c0-3.469,2.827-6.292,6.292-6.292H295.74c3.47,0,6.293,2.823,6.293,6.292V367.062L302.033,367.062z M275.784,205.826H147.916
		c-8.264,0-14.988,6.716-14.988,14.985v127.864c0,8.264,6.724,14.982,14.988,14.982h127.869c8.257,0,14.983-6.719,14.983-14.982
		V220.811C290.768,212.542,284.041,205.826,275.784,205.826z M252.38,211.822v32.46h-29.001v-32.46H252.38z M188.864,211.822h28.738
		v32.46h-28.738V211.822z M138.916,220.811c0-4.963,4.037-8.989,8.993-8.989h34.96v38.456h57.938l0.005,34.463H138.916V220.811z
		 M177.882,357.66h-29.967c-4.963,0-8.995-4.026-8.995-8.984V323.2h38.961V357.66z M222.837,357.66h-38.959V323.2h38.959V357.66z
		 M267.791,357.66h-38.963V323.2h38.963V357.66z M284.774,348.675c0,4.963-4.036,8.984-8.99,8.984h-1.998v-40.459h-44.958h-2.993
		h-41.958h-2.997h-41.959v-26.474h101.896h6h37.946v57.948H284.774z M284.774,284.741h-37.957v-34.463h37.946v34.463H284.774z
		 M284.774,244.282h-26.605v-32.46h17.62c4.954,0,8.985,4.026,8.985,8.984V244.282L284.774,244.282z"/>
</g>
<g>
</g>
<g>
</g>
<g>
</g>
<g>
</g>
<g>
</g>
<g>
</g>
<g>
</g>
<g>
</g>
<g>
</g>
<g>
</g>
<g>
</g>
<g>
</g>
<g>
</g>
<g>
</g>
<g>
</g>
</svg>
