<?xml version="1.0" encoding="iso-8859-1"?>
<!-- Generator: Adobe Illustrator 19.0.0, SVG Export Plug-In . SVG Version: 6.00 Build 0)  -->
<svg version="1.1" id="Layer_1" xmlns="http://www.w3.org/2000/svg" xmlns:xlink="http://www.w3.org/1999/xlink" x="0px" y="0px"
	 viewBox="0 0 512.002 512.002" style="enable-background:new 0 0 512.002 512.002;" xml:space="preserve">
<g>
	<g>
		<g>
			<path d="M119.467,409.6c-28.237,0-51.2,22.963-51.2,51.2c0,28.237,22.963,51.2,51.2,51.2s51.2-22.963,51.2-51.2
				C170.667,432.563,147.703,409.6,119.467,409.6z M119.467,494.934c-18.825,0-34.133-15.309-34.133-34.133
				c0-18.825,15.309-34.133,34.133-34.133S153.6,441.976,153.6,460.8C153.6,479.625,138.291,494.934,119.467,494.934z"/>
			<path d="M392.533,409.6c-28.237,0-51.2,22.963-51.2,51.2c0,28.237,22.963,51.2,51.2,51.2c28.237,0,51.2-22.963,51.2-51.2
				C443.733,432.563,420.77,409.6,392.533,409.6z M392.533,494.934c-18.825,0-34.133-15.309-34.133-34.133
				c0-18.825,15.309-34.133,34.133-34.133c18.825,0,34.133,15.309,34.133,34.133C426.667,479.625,411.358,494.934,392.533,494.934z"
				/>
			<path d="M392.533,443.734c-9.421,0-17.067,7.637-17.067,17.067c0,9.429,7.646,17.067,17.067,17.067
				c9.421,0,17.067-7.637,17.067-17.067C409.6,451.371,401.954,443.734,392.533,443.734z"/>
			<path d="M119.467,443.734c-9.421,0-17.067,7.637-17.067,17.067c0,9.429,7.646,17.067,17.067,17.067s17.067-7.637,17.067-17.067
				C136.533,451.371,128.887,443.734,119.467,443.734z"/>
			<path d="M39.741,469.334h2.927c4.719,0,8.533-3.814,8.533-8.533c0-9.054,1.809-17.69,5.026-25.6H0.565
				C3.321,454.443,19.748,469.334,39.741,469.334z"/>
			<path d="M187.733,460.8c0,4.719,3.814,8.533,8.533,8.533h119.467c4.719,0,8.533-3.814,8.533-8.533
				c0-9.054,1.809-17.69,5.026-25.6H182.707C185.924,443.111,187.733,451.746,187.733,460.8z"/>
			<path d="M511.575,366.934h-42.24v11.051c0,3.319,2.697,6.016,6.016,6.016h36.651v-11.639
				C512.002,370.518,511.823,368.717,511.575,366.934z"/>
			<path d="M68.267,324.267H204.8v-51.2H68.267V324.267z M93.867,290.134H179.2c4.719,0,8.533,3.814,8.533,8.533
				s-3.814,8.533-8.533,8.533H93.867c-4.719,0-8.533-3.814-8.533-8.533S89.148,290.134,93.867,290.134z"/>
			<path d="M452.267,377.988v-19.584c0-4.719,3.814-8.533,8.533-8.533h44.186c-4.676-6.801-11.426-12.16-19.601-15.019
				l-53.069-25.856l-57.668-79.292c-7.458-10.257-19.464-16.367-32.137-16.367H170.667v-22.178
				c9.617-5.069,18.645-11.631,26.726-19.712c41.225-41.224,43.153-107.076,5.811-150.613l6.255-6.263
				c1.664-1.673,2.5-3.857,2.5-6.033c0-2.185-0.836-4.369-2.5-6.033c-3.337-3.336-8.738-3.336-12.066,0l-78.447,78.438
				L97.681,59.686c2.918-5.035,4.719-10.795,4.719-17.015c0-18.825-15.309-34.133-34.133-34.133S34.133,23.846,34.133,42.67
				c0,18.825,15.309,34.133,34.133,34.133c6.4,0,12.322-1.877,17.451-4.958l21.163,21.163l-66.347,66.347l-0.026,0.026
				l-12.066,12.066c-1.664,1.673-2.5,3.857-2.5,6.033c0,2.185,0.836,4.369,2.5,6.033c3.337,3.337,8.73,3.337,12.066,0l6.263-6.255
				c20.693,17.749,46.438,26.633,72.175,26.633c0.179,0,0.35-0.026,0.521-0.026v9.472H39.74c-21.914,0-39.74,17.818-39.74,39.74
				v165.06h66.261c12.518-15.59,31.701-25.6,53.205-25.6s40.687,10.01,53.205,25.6h166.656c12.518-15.59,31.701-25.6,53.205-25.6
				c21.504,0,40.687,10.01,53.205,25.6H512V401.07h-36.651C462.626,401.07,452.267,390.711,452.267,377.988z M68.267,59.737
				c-9.412,0-17.067-7.663-17.067-17.067c0-9.412,7.654-17.067,17.067-17.067c9.412,0,17.067,7.654,17.067,17.067
				C85.333,52.074,77.679,59.737,68.267,59.737z M136.533,202.5c0.649-0.102,1.289-0.273,1.946-0.393
				c1.382-0.247,2.765-0.546,4.147-0.845c1.596-0.35,3.183-0.734,4.762-1.161c1.843-0.486,3.669-1.007,5.487-1.587
				c0.239-0.077,0.486-0.128,0.725-0.205v15.027h-17.067V202.5z M221.867,332.804c0,4.71-3.814,8.533-8.533,8.533h-153.6
				c-4.719,0-8.533-3.823-8.533-8.533v-68.267c0-4.719,3.814-8.533,8.533-8.533h153.6c4.719,0,8.533,3.814,8.533,8.533V332.804z
				 M298.667,384.004h-34.133c-4.719,0-8.533-3.823-8.533-8.533c0-4.719,3.814-8.533,8.533-8.533h34.133
				c4.719,0,8.533,3.814,8.533,8.533C307.2,380.181,303.386,384.004,298.667,384.004z M382.933,336.934
				c-1.51,2.714-4.369,4.403-7.467,4.403H264.533c-4.719,0-8.533-3.823-8.533-8.533v-68.267c0-4.719,3.814-8.533,8.533-8.533H332.8
				c2.944,0,5.675,1.51,7.236,4.002l42.667,68.267C384.35,330.909,384.435,334.229,382.933,336.934z"/>
			<path d="M460.8,460.8c0,4.719,3.814,8.533,8.533,8.533h2.927c19.994,0,36.42-14.891,39.177-34.133h-55.663
				C458.991,443.111,460.8,451.746,460.8,460.8z"/>
			<polygon points="273.067,273.067 273.067,324.267 360.064,324.267 328.064,273.067 			"/>
		</g>
	</g>
</g>
<g>
</g>
<g>
</g>
<g>
</g>
<g>
</g>
<g>
</g>
<g>
</g>
<g>
</g>
<g>
</g>
<g>
</g>
<g>
</g>
<g>
</g>
<g>
</g>
<g>
</g>
<g>
</g>
<g>
</g>
</svg>
